<svg width="1108" height="424" viewBox="0 0 1108 424" fill="none" xmlns="http://www.w3.org/2000/svg">
<g clip-path="url(#clip0_248_3642)">
<rect width="1107.07" height="423.131" fill="black"/>
<path d="M400.107 232.21C450.395 167.447 580.299 76.7793 700.089 232.21" stroke="#FF007F" stroke-width="7.31252"/>
<path d="M400.052 229.51C450.349 252.856 580.277 285.541 700.09 229.51" stroke="#FF007F" stroke-width="7.31252"/>
<path d="M400.052 229.172C450.349 297.937 580.277 394.209 700.09 229.172" stroke="#FF007F" stroke-width="7.31252"/>
<line x1="448.416" y1="60.4152" x2="482.054" y2="163.803" stroke="#FF007F" stroke-width="7.31252"/>
<path d="M555.035 36.9023L555.036 144.634" stroke="#FF007F" stroke-width="7.31252"/>
<line x1="660.759" y1="62.775" x2="624.805" y2="165.38" stroke="#FF007F" stroke-width="7.31252"/>
<path d="M466.214 423.132L540.839 323.119H570.073L633.543 423.132H466.214Z" fill="white"/>
<path d="M1023.59 422.747L671.24 268.881L690.089 247.725L1107.07 270.805V422.747H1023.59Z" fill="white"/>
<path d="M82.7351 424.67L433.518 271.958L413.293 250.802L0.000244141 273.729V424.67H82.7351Z" fill="white"/>
<path d="M987.435 -0.384378L663.162 187.332L644.698 173.099L735.094 -0.769043L987.435 -0.384378Z" fill="white"/>
<path d="M129.247 -1.16099L446.981 181.947L465.829 169.253L377.339 -1.53857L129.247 -1.16099Z" fill="white"/>
</g>
<defs>
<clipPath id="clip0_248_3642">
<rect width="1107.07" height="423.131" fill="white"/>
</clipPath>
</defs>
</svg>
