<svg width="1108" height="424" viewBox="0 0 1108 424" fill="none" xmlns="http://www.w3.org/2000/svg">
<g clip-path="url(#clip0_248_3599)">
<rect width="1107.07" height="423.131" fill="black"/>
<path d="M400.107 232.21C450.395 167.447 580.299 76.7793 700.089 232.21" stroke="#FF007F" stroke-width="7.31252"/>
<path d="M400.052 229.51C450.349 252.856 580.277 285.541 700.09 229.51" stroke="#FF007F" stroke-width="7.31252"/>
<path d="M400.052 229.172C450.349 297.937 580.277 394.209 700.09 229.172" stroke="#FF007F" stroke-width="7.31252"/>
<line x1="448.416" y1="60.4152" x2="482.054" y2="163.803" stroke="#FF007F" stroke-width="7.31252"/>
<path d="M555.035 36.9023L555.036 144.634" stroke="#FF007F" stroke-width="7.31252"/>
<line x1="660.759" y1="62.775" x2="624.805" y2="165.38" stroke="#FF007F" stroke-width="7.31252"/>
<path d="M683.549 423.132L614.694 311.964L642.775 296.192L882.036 423.132H683.549Z" fill="#FF007F" stroke="#FF007F" stroke-width="3.23777"/>
<path d="M424.781 423.132L493.141 312.637L465.262 296.961L227.722 423.132H424.781Z" fill="#FF007F" stroke="#FF007F" stroke-width="3.23777"/>
<path d="M1108.22 176.177L692.012 216.182L674.317 197.333L1108.22 27.3115V176.177Z" fill="#FF007F"/>
<path d="M0.768738 176.91L409.668 215.797L426.593 197.718L0.768738 30.7734V176.91Z" fill="#FF007F"/>
</g>
<defs>
<clipPath id="clip0_248_3599">
<rect width="1107.07" height="423.131" fill="white"/>
</clipPath>
</defs>
</svg>
